# xmcd
#
# Track frame offsets: 
#        150
#        13864
#        31026
#        47929
#        68491
#        87065
#        101825
#        116767
#        131347
#        148304
#        160030
#        171150
#        184709
#        194689
#        207824
#        218855
#
# Disc length: 3092 seconds
#
# Revision: 0
# Processed by: cddbd v1.5.2PL0 Copyright (c) Steve Scherf et al.
# Submitted via: ExactAudioCopy v0.95b2
#
DISCID=e30c1210
DTITLE=John Lee Hooker - Moanin' The Blues [Vinyl.Rip.Beta.02]
DYEAR=1900
DGENRE=Blues
TTITLE0=59/61 ? Drive Me Away (unissued)
TTITLE1=unk Wrong Doin' Woman (unissued)
TTITLE2=64-4431 She Left Me One Wednesday (unissued)
TTITLE3=59/61 ? Nightmare (unissued)
TTITLE4=61-1797 Sally Mae (unissued)
TTITLE5=unk Love Me All The Time (unissued)
TTITLE6=61-1798 Moanin' The Blues (unissued)
TTITLE7=61-1793 You're Gonna Miss Me When I'm Gone (unissued)
TTITLE8=58-929 Mama, You Got A Daughter
TTITLE9=55-337 Wheel And Deal (dubbed from disc)
TTITLE10=59-1068 Tennessee Blues
TTITLE11=56 Baby Lee
TTITLE12=56-480 Stop Talking
TTITLE13=57-635 I See You When You're Weak
TTITLE14=57-718 Little Fine Woman
TTITLE15=55-338 Mambo Chillun (dubbed from disc)
EXTD=
EXTT0=
EXTT1=
EXTT2=
EXTT3=
EXTT4=
EXTT5=
EXTT6=
EXTT7=
EXTT8=
EXTT9=
EXTT10=
EXTT11=
EXTT12=
EXTT13=
EXTT14=
EXTT15=
PLAYORDER=
